<svg width="260" height="61" viewBox="0 0 260 61" fill="none" xmlns="http://www.w3.org/2000/svg">
<g clip-path="url(#clip0_3323_39268)">
<path d="M18.1752 46.3356C17.4606 49.4913 19.9727 58.0365 20.7069 59.673C20.5848 49.9479 26.4841 43.577 36.549 41.4124C46.6138 39.2478 48.7831 34.7634 50.3195 27.2552C45.2238 30.7495 40.9613 29.4079 31.2957 33.0623C21.63 36.7166 18.9878 42.747 18.1752 46.3356Z" fill="url(#paint0_linear_3323_39268)"/>
<path fill-rule="evenodd" clip-rule="evenodd" d="M20.5297 58.7849C19.6969 53.8943 20.1044 44.3149 27.5969 40.4412C30.5827 38.8976 33.3703 37.9795 35.9837 37.1188C41.4504 35.3184 46.1548 33.769 50.3156 27.2703C50.3166 27.2657 50.3175 27.2611 50.3185 27.2564C47.563 29.146 45.0511 29.6215 41.7968 30.2375C39.033 30.7607 35.7336 31.3852 31.2946 33.0635C21.6289 36.7179 18.9867 42.7483 18.1741 46.3369C17.5149 49.2479 19.445 56.7867 20.3246 59.223L20.5202 59.4546C20.52 59.2296 20.5232 59.0063 20.5297 58.7849Z" fill="url(#paint1_linear_3323_39268)" fill-opacity="0.1"/>
<path d="M13.8604 41.6368C13.8706 50.1499 18.695 56.9592 20.7221 59.6686C14.8586 39.7725 26.721 35.3522 39.2126 31.6502C51.7041 27.9483 52.4655 19.2284 52.1281 13.9964C50.5734 15.4775 47.1658 17.6323 43.3586 18.6525C39.5515 19.6726 33.6454 19.481 28.0737 21.861C22.5019 24.241 13.8477 30.9953 13.8604 41.6368Z" fill="url(#paint2_linear_3323_39268)"/>
<path fill-rule="evenodd" clip-rule="evenodd" d="M20.7219 59.6681C17.2629 53.38 13.6536 38.321 24.9494 31.746C30.0424 28.7816 34.7309 27.495 38.7402 26.3949C45.8464 24.4449 50.8189 23.0804 52.1278 13.9965C50.573 15.4775 47.1656 17.6322 43.3586 18.6523C41.9827 19.021 40.3328 19.2314 38.5235 19.4621C35.3264 19.8698 31.6318 20.3409 28.0736 21.8609C22.5019 24.2409 13.8476 30.9952 13.8604 41.6366C13.8706 50.1496 18.6948 56.9587 20.7219 59.6683L20.722 59.6683C20.7219 59.6682 20.7219 59.6682 20.7219 59.6681Z" fill="url(#paint3_linear_3323_39268)" fill-opacity="0.1"/>
<path d="M4.15028 41.5771C7.21131 53.5307 16.5325 58.6619 20.7063 59.6725C18.4064 56.3857 12.6462 47.4616 14.7323 38.0319C16.8184 28.6023 23.0966 26.2104 29.9926 23.4755C51.5321 16.4621 52.9766 5.96245 52.5949 0.56491C50.3131 3.30528 40.9341 6.70545 34.4991 7.18782C28.064 7.6702 19.5982 8.51928 13.9734 12.6877C8.34856 16.856 0.323991 26.635 4.15028 41.5771Z" fill="url(#paint4_linear_3323_39268)"/>
<path fill-rule="evenodd" clip-rule="evenodd" d="M20.7073 59.6732C14.8295 55.3934 5.47655 43.742 11.3658 28.1129C15.5745 17.5446 23.3313 16.3657 29.3964 15.4438C30.0561 15.3436 30.6957 15.2464 31.3086 15.1404C36.7598 14.1983 47.5298 10.484 52.4184 0.765241C49.8631 3.46851 40.7798 6.71788 34.5001 7.18861C28.065 7.67098 19.5992 8.52007 13.9744 12.6884C8.34959 16.8568 0.325017 26.6358 4.15131 41.5778C7.21234 53.5315 16.5335 58.6627 20.7074 59.6732C20.7074 59.6732 20.7074 59.6732 20.7073 59.6732Z" fill="url(#paint5_linear_3323_39268)" fill-opacity="0.1"/>
</g>
<path d="M84.6656 41.3496H67.1226V18.2576H84.6656V20.4979H69.5697V28.6318H84.1486V30.8376H69.5697V39.1093H84.6656V41.3496ZM91.5725 41.3496H89.1254V24.3236H91.3312V28.9765H91.5035C92.0205 26.2537 93.9506 23.9789 97.5006 23.9789C101.43 23.9789 103.153 26.874 103.153 30.0449V31.7337H100.706V30.424C100.706 27.5289 99.4996 26.1158 96.5355 26.1158C93.089 26.1158 91.5725 28.2871 91.5725 32.1128V41.3496ZM109.469 41.3496H107.022V24.3236H109.228V29.459H109.366C109.848 26.5983 111.813 23.9789 116.052 23.9789C119.843 23.9789 121.98 26.3226 122.531 29.6313H122.704C123.186 26.7017 125.22 23.9789 129.494 23.9789C133.94 23.9789 136.249 27.1153 136.249 31.4235V41.3496H133.802V31.7682C133.802 27.9769 132.182 26.2192 128.597 26.2192C124.496 26.2192 122.842 28.5973 122.842 33.1123V41.3496H120.395V31.7682C120.395 27.9769 118.809 26.2192 115.225 26.2192C111.089 26.2192 109.469 28.5973 109.469 33.1123V41.3496ZM143.723 22.1523H141.276V18.2576H143.723V22.1523ZM143.723 41.3496H141.276V24.3236H143.723V41.3496ZM156.352 41.6943C151.114 41.6943 148.081 39.5919 148.081 35.6628V35.5939H150.528V35.8006C150.528 38.6613 152.217 39.6608 156.387 39.6608C160.213 39.6608 161.522 38.7647 161.522 36.8001C161.522 35.0079 160.454 34.422 157.628 33.974L153.078 33.3191C149.976 32.9055 148.012 31.6992 148.012 28.8731C148.012 25.8745 150.872 23.9789 155.56 23.9789C160.454 23.9789 163.625 26.0469 163.625 30.0449V30.1138H161.178V29.9415C161.178 27.391 159.834 26.0124 155.491 26.0124C151.906 26.0124 150.424 26.874 150.424 28.9075C150.424 30.6653 151.321 31.2856 154.147 31.6992L158.317 32.2852C161.97 32.8021 163.935 34.0429 163.935 36.8001C163.935 40.0055 160.764 41.6943 156.352 41.6943ZM177.992 41.3496H175.545V18.2576H178.888L186.643 33.3191L188.677 37.5929H188.849L190.848 33.3191L198.568 18.2576H201.946V41.3496H199.499V25.0818L199.568 21.9799H199.361L197.913 25.0818L190.228 39.971H187.264L179.578 25.0818L178.096 21.9799H177.923L177.992 25.0818V41.3496ZM215.173 41.6943C209.693 41.6943 206.212 38.2477 206.212 32.8366C206.212 27.6668 209.658 23.9789 215.138 23.9789C220.136 23.9789 223.686 26.874 223.686 31.9405C223.686 32.5609 223.617 33.0779 223.513 33.5259H208.521C208.659 37.3516 210.623 39.6608 215.138 39.6608C219.136 39.6608 220.997 38.1788 220.997 35.6972V35.456H223.444V35.6972C223.444 39.2472 219.929 41.6943 215.173 41.6943ZM215.104 26.0124C210.692 26.0124 208.693 28.2871 208.521 32.0094H221.376C221.376 31.8371 221.376 31.6648 221.376 31.4924C221.376 27.908 219.102 26.0124 215.104 26.0124ZM236.065 41.6943C230.585 41.6943 227.104 38.2477 227.104 32.8366C227.104 27.6668 230.55 23.9789 236.03 23.9789C241.028 23.9789 244.578 26.874 244.578 31.9405C244.578 32.5609 244.509 33.0779 244.405 33.5259H229.413C229.551 37.3516 231.515 39.6608 236.03 39.6608C240.028 39.6608 241.889 38.1788 241.889 35.6972V35.456H244.336V35.6972C244.336 39.2472 240.821 41.6943 236.065 41.6943ZM235.996 26.0124C231.584 26.0124 229.585 28.2871 229.413 32.0094H242.269C242.269 31.8371 242.269 31.6648 242.269 31.4924C242.269 27.908 239.994 26.0124 235.996 26.0124ZM259.3 41.3496H255.613C252.235 41.3496 250.064 39.9365 250.064 35.9385V26.426H247.031V24.3236H250.064V20.2566H252.545V24.3236H259.3V26.426H252.545V36.0764C252.545 38.4545 253.717 39.1093 256.199 39.1093H259.3V41.3496Z" fill="#0D0D0D"/>
<defs>
<linearGradient id="paint0_linear_3323_39268" x1="50.4471" y1="27.3069" x2="37.6136" y2="61.6449" gradientUnits="userSpaceOnUse">
<stop stop-color="#7326EF"/>
<stop offset="1" stop-color="#22037B"/>
</linearGradient>
<linearGradient id="paint1_linear_3323_39268" x1="32.2862" y1="32.0882" x2="38.3396" y2="54.6799" gradientUnits="userSpaceOnUse">
<stop stop-color="white"/>
<stop offset="1" stop-color="white" stop-opacity="0.2"/>
</linearGradient>
<linearGradient id="paint2_linear_3323_39268" x1="52.0893" y1="14.3143" x2="28.9737" y2="59.1738" gradientUnits="userSpaceOnUse">
<stop stop-color="#AC6AFF"/>
<stop offset="1" stop-color="#4608CB"/>
</linearGradient>
<linearGradient id="paint3_linear_3323_39268" x1="30.436" y1="19.8088" x2="39.7501" y2="54.5697" gradientUnits="userSpaceOnUse">
<stop stop-color="white"/>
<stop offset="1" stop-color="white" stop-opacity="0.2"/>
</linearGradient>
<linearGradient id="paint4_linear_3323_39268" x1="24.8677" y1="7.99437" x2="20.5711" y2="59.6297" gradientUnits="userSpaceOnUse">
<stop stop-color="#DE98FF"/>
<stop offset="1" stop-color="#5200FF"/>
</linearGradient>
<linearGradient id="paint5_linear_3323_39268" x1="24.799" y1="8.16582" x2="37.4018" y2="55.2" gradientUnits="userSpaceOnUse">
<stop stop-color="white"/>
<stop offset="1" stop-color="white" stop-opacity="0.2"/>
</linearGradient>
<clipPath id="clip0_3323_39268">
<rect width="59.884" height="60" fill="white" transform="translate(0 0.5)"/>
</clipPath>
</defs>
</svg>
