<svg xmlns="http://www.w3.org/2000/svg" width="116" height="48" fill="none"><g clip-path="url(#a)"><path fill="#37003C" d="M45.06 24.392V8.202h5.13c3.342 0 5.848 1.988 5.848 5.41S53.571 19.1 50.191 19.1h-1.989v5.291zm3.142-8.313h1.83c1.592 0 2.745-.875 2.745-2.467s-1.155-2.425-2.745-2.425h-1.83zm50 26.094c-2.347 0-5.21-1.274-5.21-5.25v-5.688h2.943v5.49c0 1.83.836 2.626 2.267 2.626 1.313 0 2.268-.914 2.268-2.625v-5.49h2.943v5.687c0 3.978-2.904 5.25-5.21 5.25m-25.337 0c-2.825 0-5.291-2.586-5.291-5.61 0-3.023 2.466-5.488 5.29-5.488 1.592 0 2.667.557 3.301 1.55l.319-1.392h2.586v10.66h-2.586l-.319-1.351c-.637.955-1.83 1.63-3.3 1.63m.597-8.434c-1.592 0-2.783 1.194-2.783 2.824 0 1.631 1.194 2.786 2.783 2.786 1.59 0 2.744-1.233 2.744-2.786 0-1.63-1.193-2.824-2.744-2.824m19.291-20.008h2.944v10.66h-2.944zm1.512-1.431c-1.033 0-1.83-.795-1.83-1.791 0-.997.795-1.83 1.83-1.83a1.8 1.8 0 0 1 1.83 1.83c0 1.035-.795 1.79-1.83 1.79m-5.928 5.806c0-1.154-.637-1.869-1.63-1.869-1.155 0-1.75.717-1.75 1.91v6.245h-2.944v-6.286c0-1.154-.637-1.869-1.63-1.869-1.155 0-1.75.717-1.75 1.91v6.245h-2.944v-10.66h2.586l.318 1.392s.637-1.67 2.625-1.67c1.233 0 2.268.518 2.983 1.592l.08.12.08-.12c1.035-1.47 2.306-1.592 3.103-1.592 2.268 0 3.819 1.711 3.819 4.137v6.803h-2.944v-6.286zm20.565 6.285v-10.66h2.547l.318 1.551c.477-.994 1.432-1.67 2.705-1.67q.419 0 .836.12v2.823a4.6 4.6 0 0 0-1.035-.119c-1.432 0-2.426.875-2.426 2.586v5.37h-2.945m-51.872 0v-10.66h2.547l.319 1.551c.476-.994 1.431-1.67 2.705-1.67q.416 0 .836.12v2.823a4.6 4.6 0 0 0-1.035-.119c-1.432 0-2.426.875-2.426 2.586v5.37H57.03M45.058 41.895V26.103H48.2V38.91h6.842v2.983zm16.347.277c-3.3 0-5.728-2.268-5.728-5.569 0-2.982 2.187-5.648 5.648-5.648 2.586 0 5.25 1.95 5.25 5.568 0 .278 0 .637-.08 1.033h-7.797c.277 1.194 1.351 1.989 2.664 1.989 1.193 0 2.107-.438 2.865-1.233l1.79 1.83c-1.155 1.313-2.825 2.03-4.616 2.03m-.158-8.631c-1.233 0-2.268.717-2.506 1.869h4.932c-.239-1.113-1.233-1.87-2.426-1.87m48.926 8.63c-3.301 0-5.729-2.267-5.729-5.568 0-2.982 2.188-5.648 5.649-5.648 2.586 0 5.249 1.95 5.249 5.568 0 .278 0 .637-.08 1.033h-7.797c.278 1.194 1.352 1.989 2.667 1.989 1.193 0 2.107-.438 2.863-1.233l1.789 1.83c-1.155 1.313-2.825 2.03-4.614 2.03m-.158-8.631c-1.232 0-2.267.717-2.505 1.869h4.931c-.238-1.113-1.232-1.87-2.426-1.87m-7.439-8.871c-3.3 0-5.729-2.268-5.729-5.569 0-2.982 2.188-5.648 5.649-5.648 2.586 0 5.25 1.95 5.25 5.568 0 .277 0 .637-.081 1.033h-7.796c.279 1.194 1.351 1.99 2.666 1.99 1.193 0 2.107-.437 2.863-1.234l1.789 1.83c-1.155 1.313-2.824 2.03-4.616 2.03m-.158-8.631c-1.232 0-2.267.717-2.506 1.869h4.932c-.238-1.113-1.232-1.87-2.426-1.87m-33.054 8.63c-3.301 0-5.729-2.267-5.729-5.568 0-2.982 2.188-5.648 5.649-5.648 2.585 0 5.25 1.95 5.25 5.568 0 .277 0 .637-.08 1.033h-7.798c.28 1.194 1.354 1.99 2.666 1.99 1.194 0 2.108-.437 2.866-1.234l1.789 1.83c-1.155 1.313-2.824 2.03-4.616 2.03m-.158-8.631c-1.232 0-2.267.717-2.505 1.869h4.931c-.238-1.113-1.232-1.87-2.426-1.87m16.827 17.701c-1.551 0-2.786 1.194-2.786 2.824 0 1.631 1.233 2.786 2.786 2.786a2.767 2.767 0 0 0 2.785-2.786c0-1.63-1.235-2.824-2.785-2.824m2.625-1.154.318-1.352h2.586v10.184c0 1.988-.557 3.38-1.87 4.416-.993.756-2.347 1.313-3.978 1.313-2.226 0-3.818-.756-5.092-1.989l1.631-2.267c.795.756 1.87 1.431 3.262 1.431 2.187 0 3.143-1.074 3.143-2.664v-.755c-.875.913-1.909 1.273-3.063 1.273-3.023 0-5.41-2.467-5.41-5.61 0-3.142 2.467-5.488 5.49-5.488 1.233 0 2.348.598 2.983 1.512M7.665 4.007c2.122.972 3.484 2.2 3.731 2.387-.112-.55-.53-3.186-.77-4.828 1.236.86 4.108 2.852 5.05 3.5.383-1.187 1.718-5.06 1.718-5.06s2.408 3.901 2.82 4.536c.502-.527 3.383-3.73 4.128-4.542.125 1.843.296 4.481.335 4.877.148-.197 1.25-1.74 3.097-3.166-.801 1.577-1.182 3.756-1.353 5.506a21.2 21.2 0 0 0-5.714-.782c-3.796 0-7.361 1-10.443 2.75-.561-1.687-1.438-3.79-2.601-5.178zm0 0c2.122.972 3.484 2.2 3.731 2.387-.112-.55-.53-3.186-.77-4.828 1.236.86 4.108 2.852 5.05 3.5.383-1.187 1.718-5.06 1.718-5.06s2.408 3.901 2.82 4.536c.502-.527 3.383-3.73 4.128-4.542.125 1.843.296 4.481.337 4.877.148-.197 1.25-1.74 3.098-3.166-.802 1.577-1.183 3.756-1.354 5.506a21.2 21.2 0 0 0-5.714-.782c-3.796 0-7.361 1-10.443 2.75-.561-1.687-1.438-3.79-2.601-5.178m29.06 33.265-1.671-1.854c-.479 5.007-2.928 9.256-7.431 12.22l-.687-2.702c-3.823 2.764-10.383 4.553-16.016 1.37.697-3.572 1.319-7.187-.013-11.519-3.119 4.832-5.882 6.725-5.882 6.725-2.106-3.539-1.917-10.64-1.29-12.733l-3.51 1.088c0-2.385 1.72-7.45 4.206-10.292l-2.192-.351a20.6 20.6 0 0 1 6.43-7.639h.003c-.817 1.29-.828 4.472 1.566 5.683-1.018-1.782-1.14-3.983-.08-5.124 1.063-1.148 2.848-.754 3.987.138-.338-.994-1.332-2.243-2.822-2.33a20.46 20.46 0 0 1 9.384-2.263 21 21 0 0 1 1.874.084c.983.396 2.425 1.78 3.099 2.64 0 0 .048-1.015-.518-2.241 3.66.888 5.404 2.378 6.136 3.099.15 1.579.624 2.53 1.25 4.033-1.185-1.33-4.165-3.47-5.586-3.983 0 0-.117 1.37-.606 2.031-2.831-2.044-4.222-2.555-4.222-2.555-3.11.444-5.107 1.643-6.191 2.586l.946.805c-1.873.576-3.09 2.188-3.09 2.188.012.028 1.674.264 1.674.264s-.17 1.951 2.274 3.175c2.09 1.046 5.1-.251 7.933.884-1.865-2.15-3.147-3.113-3.147-3.113s-.74-.153-1.263-.151c-.65.004-1.617.134-2.683-.282-.507-.197-1.1-.548-1.564-.84 0 0 1.308-1.343 3.216-1.64 0 0 1.722.486 3.089 1.495.907-.884 1.854-.856 1.854-.856s-.938.877-.654 1.939c1.364 1.217 2.844 2.956 2.844 2.956 1.507-.827 4.782-.637 5.455.143-.853-1.105-2.081-2.027-3.032-2.818-.115-.413-1.152-1.86-1.328-1.992 0 0 .988.305 1.867 1.094.256-.36.728-.728 1.374-.89.664.556.78 1.41.762 1.552-.301.355-.591.503-.591.503l1.594 1.726.16-1.239c3.675 5.248 5.68 11.33 3.101 18.977zM29.794 25.96l-.005-2.714s-1.21-.39-2.508-1.395c-2.599.394-5.75 3.008-5.75 3.008s1.066 2.019 2.227 4.195c2.046.282 5.06-2.297 6.031-3.097zm2.616 4.922s-.208-1.122-1.098-2.172l-2.027.05s-2.738 2.352-4.405 2.406c0 0 .92 1.711 1.381 2.604.92-.2 2.537-.928 3.186-1.681 0 0 .431 1.388.349 3.023.914-.532 2.174-1.966 2.616-4.232zm.834-8.92a13 13 0 0 1-1.89 1.338l.008 2.727c.734.816 1.455 1.492 1.997 2.724 1.024-1.843.83-4.559-.115-6.79"/></g><defs><clipPath id="a"><path fill="#fff" d="M0 0h115.5v48H0z"/></clipPath></defs></svg>