<svg width="231" height="69" viewBox="0 0 231 69" fill="none" xmlns="http://www.w3.org/2000/svg">
<g clip-path="url(#clip0_53_3)">
<path d="M6.40958 54.2427C6.59352 54.4988 6.63455 54.8317 6.51259 55.1224L2.02366 65.8218C1.51375 67.0372 2.7181 68.2669 3.94383 67.7824L15.313 63.2887C15.5811 63.1827 15.8835 63.2133 16.1277 63.3665C21.4576 66.71 27.7719 68.6448 34.541 68.6448C39.6916 68.6448 44.5789 67.5246 48.9695 65.516C29.7767 65.516 20.3647 50.6204 17.2705 45.2612L15.6328 15.9311C8.63714 19.9701 0 37.2969 2.89338 48.0951C3.85408 50.2717 5.03553 52.3302 6.40958 54.2427Z" fill="url(#paint0_linear_53_3)"/>
<path d="M69.082 34.3224C69.082 16.9133 56.0381 2.53149 39.1319 0.300503C48.7509 2.87791 54.9381 14.7457 54.9381 18.4622C51.6365 43.9688 43.1076 49.7267 17.2705 45.2612C20.3647 50.6204 29.7767 65.516 48.9695 65.516C60.8409 60.0853 69.082 48.1602 69.082 34.3224Z" fill="url(#paint1_linear_53_3)"/>
<path d="M34.541 0C15.4645 0 0 15.3667 0 34.3224C0 39.2207 1.03263 43.8793 2.89338 48.0951C0 37.2969 8.63714 19.9701 15.6328 15.9311L17.2705 45.2612C43.1076 49.7267 51.6365 43.9688 54.9381 18.4622C54.9381 14.7457 48.7509 2.87791 39.1319 0.300503C37.6299 0.1023 36.0975 0 34.541 0Z" fill="url(#paint2_linear_53_3)"/>
<path d="M14.2927 35.5363L14.2927 19.4139C14.2927 16.7425 15.4082 15.4839 17.1611 15.4839C22.579 15.4839 24.4913 20.7743 24.4913 24.2509V34.8316C24.4913 37.3973 25.5657 39.8579 27.4783 41.6721C31.4611 45.45 37.9185 45.45 41.9012 41.6721C43.8138 39.8579 44.8883 37.3973 44.8883 34.8316V24.2509C44.8883 20.7743 46.8005 15.4839 52.2185 15.4839C53.9714 15.4839 55.0869 16.7425 55.0869 19.4139V35.5363C55.0869 42.3302 51.0403 48.7226 44.6342 51.7609L43.8116 52.151C38.0693 54.8745 31.3103 54.8745 25.5679 52.151L24.7454 51.7609C18.3393 48.7226 14.2927 42.3302 14.2927 35.5363Z" fill="white"/>
<circle cx="40.2235" cy="31.6824" r="1.31018" fill="white"/>
<circle cx="34.66" cy="31.6824" r="1.31018" fill="white"/>
<circle cx="29.0026" cy="31.6824" r="1.31018" fill="white"/>
<path d="M138.581 28.7584C142.325 28.7585 145.53 29.951 148.196 32.3356C150.861 34.7202 152.194 37.5914 152.194 40.9489V51.5924C152.194 52.4147 151.523 53.0963 150.708 52.9889C149.212 52.7918 148.004 52.2794 147.085 51.4508C145.88 50.3635 145.277 49.0661 145.277 47.5592V40.9489C145.277 39.251 144.631 37.7909 143.341 36.5699C142.051 35.3491 140.464 34.7389 138.581 34.7389C136.72 34.7389 135.133 35.3592 133.822 36.5992C132.51 37.8202 131.854 39.2701 131.854 40.9489V51.5924C131.854 52.4146 131.184 53.096 130.369 52.9889C128.873 52.7918 127.664 52.2796 126.745 51.4508C125.54 50.3635 124.937 49.0661 124.937 47.5592V40.9489C124.937 39.251 124.292 37.7909 123.001 36.5699C121.711 35.3492 120.124 34.7389 118.241 34.7389C116.38 34.739 114.794 35.3594 113.483 36.5992C112.171 37.8202 111.515 39.2701 111.515 40.9489V47.5592C111.515 49.0852 110.912 50.3919 109.706 51.4791C108.801 52.2953 107.593 52.7992 106.083 52.9918C105.268 53.0958 104.598 52.4147 104.598 51.5924V40.9489C104.598 37.5913 105.931 34.7202 108.596 32.3356C111.282 29.951 114.497 28.7585 118.241 28.7584C122.282 28.7584 125.677 30.1224 128.427 32.8502C129.717 31.5721 131.252 30.5703 133.029 29.8453C134.805 29.1205 136.656 28.7584 138.581 28.7584ZM188.811 28.7584C192.555 28.7584 195.76 29.951 198.425 32.3356C201.09 34.7202 202.423 37.5914 202.423 40.9489V51.5924C202.423 52.4147 201.753 53.0963 200.938 52.9889C199.441 52.7918 198.234 52.2794 197.315 51.4508C196.109 50.3635 195.506 49.0661 195.506 47.5592V40.9489C195.506 39.251 194.861 37.7909 193.571 36.5699C192.28 35.3491 190.693 34.7389 188.811 34.7389C186.949 34.7389 185.363 35.3592 184.051 36.5992C182.74 37.8201 182.084 39.2702 182.084 40.9489V51.5924C182.084 52.4146 181.414 53.0961 180.599 52.9889C179.102 52.7918 177.894 52.2796 176.975 51.4508C175.769 50.3635 175.166 49.0661 175.166 47.5592V40.9489C175.166 39.251 174.521 37.7909 173.231 36.5699C171.941 35.3494 170.354 34.739 168.472 34.7389C166.61 34.7389 165.024 35.3593 163.712 36.5992C162.401 37.8202 161.744 39.2701 161.744 40.9489V47.5592C161.744 49.0852 161.141 50.3919 159.936 51.4791C159.031 52.2953 157.823 52.7993 156.313 52.9918C155.497 53.0958 154.827 52.4146 154.827 51.5924V40.9489C154.827 37.5914 156.16 34.7202 158.825 32.3356C161.512 29.951 164.728 28.7584 168.472 28.7584C172.512 28.7585 175.907 30.1225 178.656 32.8502C179.947 31.5721 181.481 30.5703 183.258 29.8453C185.035 29.1205 186.886 28.7584 188.811 28.7584ZM76.5227 16.3893C78.0192 16.5864 79.2268 17.0996 80.1458 17.9283C81.3514 19.0157 81.9543 20.3129 81.9543 21.8199V30.1324C83.6678 29.2168 85.9108 28.7594 88.6819 28.7594C92.4259 28.7595 95.6309 29.951 98.2961 32.3356C100.961 34.7201 102.294 37.5915 102.294 40.9489V51.5934C102.294 52.4155 101.624 53.0971 100.809 52.9899C99.3123 52.7928 98.1038 52.2796 97.1848 51.4508C95.9793 50.3635 95.3762 49.0661 95.3762 47.5592V40.9489C95.3761 39.2702 94.7209 37.8201 93.4094 36.5992C92.1192 35.3594 90.5431 34.74 88.6819 34.7399C86.8205 34.7399 85.2336 35.3595 83.9221 36.5992C82.6107 37.8201 81.9544 39.2702 81.9543 40.9489V47.5592C81.9543 49.0663 81.3515 50.3634 80.1458 51.4508C79.2268 52.2796 78.0192 52.7928 76.5227 52.9899C75.7075 53.0972 75.0374 52.4156 75.0374 51.5934V17.7858C75.0374 16.9635 75.7075 16.2819 76.5227 16.3893ZM206.542 45.276C208.039 45.4731 209.246 45.9863 210.165 46.8151C211.371 47.9024 211.974 49.1996 211.974 50.7067V51.5924C211.974 52.4145 211.305 53.096 210.49 52.9889C208.993 52.7918 207.784 52.2795 206.865 51.4508C205.66 50.3635 205.057 49.0661 205.057 47.5592V46.6725C205.057 45.8503 205.727 45.1686 206.542 45.276ZM216.055 45.276C217.552 45.4731 218.76 45.9863 219.679 46.8151C220.884 47.9024 221.488 49.1998 221.488 50.7067V51.5924C221.488 52.4146 220.817 53.0961 220.002 52.9889C218.506 52.7918 217.297 52.2796 216.378 51.4508C215.173 50.3635 214.57 49.0661 214.57 47.5592V46.6725C214.57 45.8503 215.24 45.1688 216.055 45.276ZM225.568 45.276C227.064 45.4731 228.273 45.9863 229.192 46.8151C230.397 47.9024 231 49.1997 231 50.7067V51.5924C231 52.4146 230.33 53.0962 229.515 52.9889C228.018 52.7918 226.81 52.2796 225.891 51.4508C224.685 50.3636 224.082 49.066 224.082 47.5592V46.6725C224.082 45.8504 224.753 45.1689 225.568 45.276Z" fill="url(#paint3_linear_53_3)"/>
</g>
<defs>
<linearGradient id="paint0_linear_53_3" x1="5.35981" y1="25.1613" x2="27.0968" y2="64.4666" gradientUnits="userSpaceOnUse">
<stop stop-color="#5027B1"/>
<stop offset="1" stop-color="#7949EC"/>
</linearGradient>
<linearGradient id="paint1_linear_53_3" x1="57.618" y1="13.3995" x2="34.541" y2="64.1689" gradientUnits="userSpaceOnUse">
<stop stop-color="#7949EC"/>
<stop offset="1" stop-color="#5027B1"/>
</linearGradient>
<linearGradient id="paint2_linear_53_3" x1="14.4417" y1="15.335" x2="46.3028" y2="12.2085" gradientUnits="userSpaceOnUse">
<stop stop-color="#AC6AFF"/>
<stop offset="1" stop-color="#4608CB"/>
</linearGradient>
<linearGradient id="paint3_linear_53_3" x1="65.6373" y1="43.4723" x2="116.01" y2="43.4723" gradientUnits="userSpaceOnUse">
<stop stop-color="#7949EC"/>
<stop offset="1" stop-color="#5027B1"/>
</linearGradient>
<clipPath id="clip0_53_3">
<rect width="231" height="69" fill="white"/>
</clipPath>
</defs>
</svg>
